<svg id="Слой_1" data-name="Слой 1" xmlns="http://www.w3.org/2000/svg" viewBox="0 0 400 280"><defs><style>.cls-1{fill:#fff;}.cls-2{fill:#1f4a6b;}.cls-3{fill:#f48020;}</style></defs><title>tenzor</title><rect class="cls-1" width="400" height="280"/><path class="cls-2" d="M252.75,211.39a24.41,24.41,0,0,1,8.08,1.19c4.27,1.5,6.73,4.62,7.9,8.89a29.93,29.93,0,0,1,1,6.92,38.84,38.84,0,0,1-.87,10.91,13.58,13.58,0,0,1-3.92,7,12.94,12.94,0,0,1-6.28,3,31,31,0,0,1-12.4,0c-5.37-1.1-8.71-4.38-10.11-9.66a32.18,32.18,0,0,1-1-7,41.08,41.08,0,0,1,.56-9.46,15.39,15.39,0,0,1,3-7,12.27,12.27,0,0,1,6.74-4.1A28.41,28.41,0,0,1,252.75,211.39Zm9,20.11a38.35,38.35,0,0,0-.58-8c-.64-2.93-2.32-4.5-5.1-4.79a33.42,33.42,0,0,0-7.21,0,5.11,5.11,0,0,0-4.62,3.32,15,15,0,0,0-.84,4.07,57.46,57.46,0,0,0-.13,6.82,25.85,25.85,0,0,0,.54,4.8c.58,2.63,2.05,4.39,4.82,4.82a24.28,24.28,0,0,0,7.75,0,5.39,5.39,0,0,0,4.61-4.21A28.14,28.14,0,0,0,261.75,231.5Z"/><path class="cls-2" d="M195.18,230.94q0,9,0,18c0,.43-.09.54-.53.54q-3.33,0-6.67,0c-.41,0-.49-.11-.49-.5,0-5,0-10,0-15,0-.47-.13-.55-.57-.55H174.23c-.43,0-.54.12-.54.54,0,5,0,10,0,15,0,.43-.07.57-.55.57q-3.34,0-6.67,0c-.38,0-.45-.11-.45-.46q0-18.08,0-36.15c0-.37.08-.49.48-.49,2.21,0,4.41,0,6.62,0,.44,0,.58.08.57.56,0,4.22,0,8.44,0,12.67,0,.47.13.56.57.55H187c.42,0,.54-.08.54-.52,0-4.24,0-8.49,0-12.73,0-.43.1-.53.53-.53q3.28,0,6.57,0c.45,0,.59.09.59.58C195.17,218.94,195.18,224.94,195.18,230.94Z"/><path class="cls-2" d="M133.41,230.75c0-6,0-12,0-17.95,0-.45.1-.57.56-.57q12.93,0,25.86,0c.39,0,.52.08.51.49,0,2,0,4,0,6,0,.42-.08.54-.52.53-6.07,0-12.14,0-18.21,0-.42,0-.54.08-.54.52q0,3,0,6.06c0,.45.13.52.54.52,4.21,0,8.42,0,12.63,0,.39,0,.51.08.51.5q0,3,0,5.94c0,.4-.11.48-.49.47-4.2,0-8.41,0-12.62,0-.5,0-.58.15-.57.6q0,4,0,8c0,.41.07.55.52.55,6.09,0,12.17,0,18.26,0,.39,0,.49.08.48.47q0,3,0,6c0,.38-.06.52-.49.52q-13,0-25.92,0c-.45,0-.52-.15-.51-.55Q133.42,239.75,133.41,230.75Z"/><path class="cls-2" d="M275.46,230.76c0-6,0-12,0-18,0-.44.12-.53.54-.53,6,0,12,0,17.95,0a10,10,0,0,1,7.16,2.65,10.33,10.33,0,0,1,2.86,5.43,19.1,19.1,0,0,1-.15,9.44,9.72,9.72,0,0,1-7.63,7.28,13.91,13.91,0,0,1-2.88.26h-9.56c-.42,0-.55.07-.54.52,0,3.65,0,7.31,0,11,0,.39-.08.53-.51.52q-3.36,0-6.72,0c-.43,0-.54-.11-.54-.54C275.47,242.76,275.46,236.76,275.46,230.76Zm7.75-6c0,1.72,0,3.45,0,5.17,0,.32.08.41.4.4,3,0,6,0,9,0a3.06,3.06,0,0,0,3.14-2.2,10.1,10.1,0,0,0-.17-7.06,2.9,2.9,0,0,0-2.91-1.91c-3,0-6,0-9,0-.42,0-.47.14-.47.5C283.22,221.34,283.21,223,283.21,224.75Z"/><path class="cls-2" d="M225.09,229.43a8,8,0,0,1,4.13,6.5,16.56,16.56,0,0,1-.27,6.35,9,9,0,0,1-6.15,6.52,23.16,23.16,0,0,1-7.2,1.13,56.06,56.06,0,0,1-14.31-1.54c-.32-.07-.4-.16-.33-.46.52-2.1,1-4.2,1.53-6.3.08-.33.18-.32.45-.23a28.57,28.57,0,0,0,6.86,1.29,32.52,32.52,0,0,0,7.51-.12,7.48,7.48,0,0,0,2-.56,3.06,3.06,0,0,0,1.92-2.6,11.39,11.39,0,0,0-.05-3,3.31,3.31,0,0,0-2.81-2.9,14.92,14.92,0,0,0-3.59-.33c-2,0-4,0-6,0-.35,0-.46-.09-.46-.46q0-3,0-5.94c0-.39.1-.5.49-.49q3.18,0,6.36,0a12.58,12.58,0,0,0,3.17-.35,2.78,2.78,0,0,0,2.24-2.83c0-.6,0-1.21,0-1.81a2.11,2.11,0,0,0-1.31-2,9.33,9.33,0,0,0-3.25-.7,40.81,40.81,0,0,0-8.34.31,19.51,19.51,0,0,0-4.26,1c-.35.13-.45,0-.53-.3q-.76-3.12-1.57-6.23c-.09-.32,0-.41.28-.47,1.68-.34,3.36-.67,5.06-.91a48.48,48.48,0,0,1,7.61-.58,25.63,25.63,0,0,1,8.48,1.18c2.54.9,4.54,2.43,5.3,5.12a12.87,12.87,0,0,1-.61,9.25A6.32,6.32,0,0,1,225.09,229.43Z"/><path class="cls-2" d="M111.64,212.25q7.77,0,15.52,0c.47,0,.57.12.56.57,0,1.95,0,3.9,0,5.84,0,.44-.08.58-.55.58-3.86,0-7.73,0-11.59,0-.4,0-.5.1-.5.51,0,9.67,0,19.34,0,29,0,.48-.13.59-.6.58q-3.3,0-6.62,0c-.43,0-.57-.07-.57-.55,0-9.64,0-19.28,0-28.91,0-.5-.08-.66-.63-.65-3.57,0-7.14,0-10.7,0-.38,0-.49-.07-.49-.47,0-2,0-4,0-6,0-.4.1-.51.5-.5Z"/><path class="cls-2" d="M200.07,140,234.64,80q4.77-8.27,9.57-16.53c-.33-.39-.71-.24-1-.24H156.76c-.31,0-.62,0-.92,0q-5.39-9.24-10.75-18.5l-8.55-14.68c1.18,0,2.35,0,3.53,0q61,0,122.07,0a2.2,2.2,0,0,1,2.27,1.25q8.8,15.39,17.73,30.71a2,2,0,0,1,0,2.31Q251,118.12,219.9,172c-.24.42-.34,1-1,1.12,0-.72-.49-1.22-.81-1.79Q209.13,155.62,200.07,140Z"/><path class="cls-3" d="M136.54,30.08l8.55,14.68q5.37,9.26,10.75,18.5c4.34,7.55,8.67,15.12,13,22.65.61,1,.63,1.51-.56,2.18q-13.26,7.53-26.4,15.25c-1,.59-1.22.27-1.68-.52q-11.16-19.41-22.38-38.77a1.55,1.55,0,0,1-.13-1.8q9.24-16,18.45-31.93C136.25,30.21,136.42,30.16,136.54,30.08Z"/><path class="cls-3" d="M200.07,140q9,15.68,18.07,31.36c.32.57.83,1.07.81,1.79a10.37,10.37,0,0,1-2.89.12c-11.27,0-22.53,0-33.79,0a1.89,1.89,0,0,1-2-1q-11.09-19.26-22.24-38.5c-.5-.86-.67-1.34.44-2q13.32-7.56,26.54-15.3c.92-.54,1.27-.4,1.76.45Q193.41,128.45,200.07,140Z"/></svg>